<?xml version="1.0" encoding="UTF-8"?>
<svg version="1.1" xmlns="http://www.w3.org/2000/svg" width="512" height="512">
<path d="M0 0 C0.87240326 0.00215515 1.74480652 0.0043103 2.64364624 0.00653076 C16.73991199 0.06216397 30.48942836 0.70939742 44.375 3.3125 C45.4283252 3.50585938 46.48165039 3.69921875 47.56689453 3.8984375 C87.66124214 11.48749468 125.30248355 27.98957283 157.375 53.3125 C158.19742187 53.94285156 159.01984375 54.57320312 159.8671875 55.22265625 C167.08476595 60.83760946 173.76124413 67.00828976 180.375 73.3125 C180.87209473 73.78623047 181.36918945 74.25996094 181.88134766 74.74804688 C188.60170116 81.19922433 194.63635142 87.98145156 200.375 95.3125 C201.16519531 96.29734375 201.95539063 97.2821875 202.76953125 98.296875 C230.29611469 132.90297038 247.59526158 174.73478109 254.375 218.3125 C254.49214355 219.01922852 254.60928711 219.72595703 254.72998047 220.45410156 C258.84894175 246.19607948 257.84685374 274.73811499 253.375 300.3125 C253.21402832 301.2494873 253.05305664 302.18647461 252.88720703 303.15185547 C248.85975218 325.68780601 241.49565346 347.78243077 231.375 368.3125 C231.00294434 369.07433594 230.63088867 369.83617187 230.24755859 370.62109375 C221.81008546 387.72778086 211.42881027 403.53612852 199.375 418.3125 C198.92189453 418.86856934 198.46878906 419.42463867 198.00195312 419.99755859 C187.31090994 433.00939407 175.71162494 444.99352491 162.375 455.3125 C161.13356818 456.30530673 159.89272343 457.29884783 158.65234375 458.29296875 C121.37649313 487.85209575 76.5886163 505.88049221 29.375 511.3125 C28.5794873 511.4067627 27.78397461 511.50102539 26.96435547 511.59814453 C18.40859139 512.500025 9.84361485 512.55588461 1.25 512.5625 C0.45776031 512.56317474 -0.33447937 512.56384949 -1.15072632 512.56454468 C-59.65894364 512.4858621 -116.26095992 492.31817034 -161.625 455.3125 C-162.18106934 454.85939453 -162.73713867 454.40628906 -163.31005859 453.93945312 C-176.34456989 443.22977859 -188.21807409 431.6113701 -198.625 418.3125 C-199.25277344 417.56355469 -199.88054687 416.81460937 -200.52734375 416.04296875 C-230.8014442 379.70166617 -249.01833002 332.98674162 -254.625 286.3125 C-254.7192627 285.53890137 -254.81352539 284.76530273 -254.91064453 283.96826172 C-255.8596183 275.06081026 -255.86851369 266.13563658 -255.875 257.1875 C-255.87567474 256.34790741 -255.87634949 255.50831482 -255.87704468 254.64328003 C-255.85888232 240.35256239 -255.08062077 226.41632591 -252.625 212.3125 C-252.4693457 211.39146484 -252.31369141 210.47042969 -252.15332031 209.52148438 C-246.25917301 175.94484488 -233.0399549 142.40358811 -213.625 114.3125 C-213.22361816 113.72017578 -212.82223633 113.12785156 -212.40869141 112.51757812 C-206.36893282 103.62896707 -199.71206408 95.38253933 -192.625 87.3125 C-191.87476563 86.45011719 -191.12453125 85.58773437 -190.3515625 84.69921875 C-181.1923724 74.33313176 -171.54031227 64.82734941 -160.625 56.3125 C-159.64144531 55.52359375 -158.65789062 54.7346875 -157.64453125 53.921875 C-135.30398827 36.14658871 -109.69609945 22.34335439 -82.625 13.3125 C-81.4191626 12.90378662 -81.4191626 12.90378662 -80.18896484 12.48681641 C-70.26926844 9.17226888 -60.24447304 6.65810241 -50 4.5625 C-49.03610352 4.36374268 -48.07220703 4.16498535 -47.07910156 3.96020508 C-31.44457659 0.92160572 -15.8995386 -0.0713112 0 0 Z " fill="#0052A4" transform="translate(255.625,-0.3125)"/>
<path d="M0 0 C0.87240326 0.00215515 1.74480652 0.0043103 2.64364624 0.00653076 C16.73991199 0.06216397 30.48942836 0.70939742 44.375 3.3125 C45.4283252 3.50585938 46.48165039 3.69921875 47.56689453 3.8984375 C87.66124214 11.48749468 125.30248355 27.98957283 157.375 53.3125 C158.19742187 53.94285156 159.01984375 54.57320312 159.8671875 55.22265625 C167.08476595 60.83760946 173.76124413 67.00828976 180.375 73.3125 C180.87209473 73.78623047 181.36918945 74.25996094 181.88134766 74.74804688 C188.60170116 81.19922433 194.63635142 87.98145156 200.375 95.3125 C201.16519531 96.29734375 201.95539063 97.2821875 202.76953125 98.296875 C230.29611469 132.90297038 247.59526158 174.73478109 254.375 218.3125 C254.49214355 219.01922852 254.60928711 219.72595703 254.72998047 220.45410156 C258.84894175 246.19607948 257.84685374 274.73811499 253.375 300.3125 C253.21402832 301.2494873 253.05305664 302.18647461 252.88720703 303.15185547 C248.85975218 325.68780601 241.49565346 347.78243077 231.375 368.3125 C231.00294434 369.07433594 230.63088867 369.83617187 230.24755859 370.62109375 C221.81008546 387.72778086 211.42881027 403.53612852 199.375 418.3125 C198.92189453 418.86856934 198.46878906 419.42463867 198.00195312 419.99755859 C187.31090994 433.00939407 175.71162494 444.99352491 162.375 455.3125 C161.13356818 456.30530673 159.89272343 457.29884783 158.65234375 458.29296875 C121.37649313 487.85209575 76.5886163 505.88049221 29.375 511.3125 C28.5794873 511.4067627 27.78397461 511.50102539 26.96435547 511.59814453 C18.40859139 512.500025 9.84361485 512.55588461 1.25 512.5625 C0.45776031 512.56317474 -0.33447937 512.56384949 -1.15072632 512.56454468 C-59.65894364 512.4858621 -116.26095992 492.31817034 -161.625 455.3125 C-162.18106934 454.85939453 -162.73713867 454.40628906 -163.31005859 453.93945312 C-176.34456989 443.22977859 -188.21807409 431.6113701 -198.625 418.3125 C-199.25277344 417.56355469 -199.88054687 416.81460937 -200.52734375 416.04296875 C-230.8014442 379.70166617 -249.01833002 332.98674162 -254.625 286.3125 C-254.7192627 285.53890137 -254.81352539 284.76530273 -254.91064453 283.96826172 C-255.8596183 275.06081026 -255.86851369 266.13563658 -255.875 257.1875 C-255.87567474 256.34790741 -255.87634949 255.50831482 -255.87704468 254.64328003 C-255.85888232 240.35256239 -255.08062077 226.41632591 -252.625 212.3125 C-252.4693457 211.39146484 -252.31369141 210.47042969 -252.15332031 209.52148438 C-246.25917301 175.94484488 -233.0399549 142.40358811 -213.625 114.3125 C-213.22361816 113.72017578 -212.82223633 113.12785156 -212.40869141 112.51757812 C-206.36893282 103.62896707 -199.71206408 95.38253933 -192.625 87.3125 C-191.87476563 86.45011719 -191.12453125 85.58773437 -190.3515625 84.69921875 C-181.1923724 74.33313176 -171.54031227 64.82734941 -160.625 56.3125 C-159.64144531 55.52359375 -158.65789062 54.7346875 -157.64453125 53.921875 C-135.30398827 36.14658871 -109.69609945 22.34335439 -82.625 13.3125 C-81.4191626 12.90378662 -81.4191626 12.90378662 -80.18896484 12.48681641 C-70.26926844 9.17226888 -60.24447304 6.65810241 -50 4.5625 C-49.03610352 4.36374268 -48.07220703 4.16498535 -47.07910156 3.96020508 C-31.44457659 0.92160572 -15.8995386 -0.0713112 0 0 Z M-31.625 42.3125 C-32.841875 42.51875 -34.05875 42.725 -35.3125 42.9375 C-58.26529214 47.21683413 -80.03876887 54.25883471 -100.625 65.3125 C-101.6164502 65.83432861 -101.6164502 65.83432861 -102.62792969 66.36669922 C-118.0791782 74.52546626 -131.50858431 84.83350421 -144.625 96.3125 C-146.00365234 97.50552734 -146.00365234 97.50552734 -147.41015625 98.72265625 C-152.59505206 103.2819236 -157.20056508 108.0232064 -161.625 113.3125 C-162.87410156 114.72982422 -162.87410156 114.72982422 -164.1484375 116.17578125 C-174.69026695 128.19762585 -183.04813568 141.37032792 -190.61083984 155.43066406 C-191.53536412 157.14617516 -192.47954679 158.85105496 -193.42578125 160.5546875 C-205.29422355 182.87281577 -211.43868186 207.40536528 -214.625 232.3125 C-214.7590625 233.3334375 -214.893125 234.354375 -215.03125 235.40625 C-216.88067808 252.87307075 -216.10604043 270.95230567 -213.625 288.3125 C-213.51736328 289.07852539 -213.40972656 289.84455078 -213.29882812 290.63378906 C-208.78673185 320.80365313 -196.47928385 352.5773279 -178.625 377.3125 C-177.9448584 378.26793701 -177.9448584 378.26793701 -177.25097656 379.24267578 C-171.05694173 387.89653273 -164.55907898 396.08756316 -157.14697266 403.73925781 C-156.07778298 404.84446446 -155.0155453 405.95641845 -153.95849609 407.07324219 C-125.00377137 437.62718707 -86.73994297 458.60682025 -45.625 467.3125 C-44.36042969 467.6425 -43.09585938 467.9725 -41.79296875 468.3125 C9.00990221 481.12376557 67.0031769 467.92738232 111.484375 441.96875 C114.88312793 439.89387853 118.14709906 437.64245588 121.375 435.3125 C122.01195801 434.85907227 122.64891602 434.40564453 123.30517578 433.93847656 C131.95903273 427.74444173 140.15006316 421.24657898 147.80175781 413.83447266 C148.90696446 412.76528298 150.01891845 411.7030453 151.13574219 410.64599609 C165.61760903 396.92212281 177.43816549 381.60421786 187.375 364.3125 C187.82085449 363.53986816 188.26670898 362.76723633 188.72607422 361.97119141 C203.09367512 336.72102545 211.66094843 309.05301118 215.375 280.3125 C215.50777344 279.31734375 215.64054687 278.3221875 215.77734375 277.296875 C217.46271985 261.50513184 217.07434253 245.09487841 214.68701172 229.40185547 C214.35810778 227.19938296 214.0705332 224.9936646 213.78515625 222.78515625 C208.17121982 181.38345302 188.62282268 142.15183331 160.42578125 111.55078125 C158.50055454 109.44953381 156.65421697 107.29930694 154.8125 105.125 C151.30661147 101.11598851 147.44193751 97.73800777 143.375 94.3125 C142.00601563 93.09433594 142.00601563 93.09433594 140.609375 91.8515625 C95.04449981 51.61273777 28.41777589 32.13575832 -31.625 42.3125 Z " fill="#0152A4" transform="translate(255.625,-0.3125)"/>
<path d="M0 0 C135.01455026 0 135.01455026 0 165.75 29.4375 C183.97292413 48.27431697 192.43743813 73.28668025 192.30029297 99.1796875 C191.67976692 125.52129763 179.29237312 149.5896999 160.52734375 167.77734375 C141.35694954 184.63662398 117.44380477 192.41270553 92.140625 192.1953125 C91.01253418 192.19329834 89.88444336 192.19128418 88.72216797 192.18920898 C84.56473644 192.17885598 80.40736352 192.15093475 76.25 192.125 C66.9275 192.08375 57.605 192.0425 48 192 C48 228.3 48 264.6 48 302 C32.16 302 16.32 302 0 302 C0 202.34 0 102.68 0 0 Z " fill="#FDFEFE" transform="translate(184,120)"/>
<path d="M0 0 C0.76070801 0.13390137 1.52141602 0.26780273 2.30517578 0.40576172 C23.68835447 4.32339939 44.56802645 11.30673826 64 21 C64.7616748 21.37801758 65.52334961 21.75603516 66.30810547 22.14550781 C75.63607773 26.82047272 84.50231484 31.91843892 93 38 C93.96035156 38.68578125 94.92070312 39.3715625 95.91015625 40.078125 C114.88234732 53.97606734 132.02389899 70.05292716 146 89 C146.71542969 89.94359375 147.43085938 90.8871875 148.16796875 91.859375 C171.05411579 122.49228361 185.31195536 158.31670429 191 196 C191.20625 197.27230469 191.4125 198.54460937 191.625 199.85546875 C196.86424104 236.71207413 191.89048215 276.53647393 178 311 C177.66629395 311.84433594 177.33258789 312.68867188 176.98876953 313.55859375 C157.22374724 363.16926041 121.57054686 404.69387081 75 431 C74.35901367 431.36834961 73.71802734 431.73669922 73.05761719 432.11621094 C60.89048377 439.06455409 48.16246334 444.24210311 35 449 C34.25862793 449.26828613 33.51725586 449.53657227 32.75341797 449.81298828 C21.4295939 453.82446991 9.82846084 456.05748392 -2 458 C-2.8957373 458.15243164 -3.79147461 458.30486328 -4.71435547 458.46191406 C-26.53565515 462.09030758 -49.13769115 462.64751764 -71 459 C-72.90072266 458.690625 -72.90072266 458.690625 -74.83984375 458.375 C-78.91245998 457.65893561 -82.95452175 456.85347642 -87 456 C-88.19085205 455.75491699 -88.19085205 455.75491699 -89.40576172 455.50488281 C-123.96405406 448.28215298 -156.74934918 432.45765257 -184 410 C-184.55461914 409.54689453 -185.10923828 409.09378906 -185.68066406 408.62695312 C-198.66768541 397.95930404 -210.78174052 386.38191988 -221 373 C-221.41282227 372.46890625 -221.82564453 371.9378125 -222.25097656 371.390625 C-234.74327576 355.26437052 -244.95288232 337.73640373 -253 319 C-253.35046387 318.1848291 -253.70092773 317.3696582 -254.06201172 316.52978516 C-277.08924567 261.95025094 -276.78755479 198.51249458 -255.06640625 143.64160156 C-252.88774804 138.34185728 -250.50057118 133.1547649 -248 128 C-247.63036133 127.23478027 -247.26072266 126.46956055 -246.87988281 125.68115234 C-236.12440056 103.70117232 -221.7879645 84.70925523 -205 67 C-204.29037109 66.24734863 -204.29037109 66.24734863 -203.56640625 65.47949219 C-195.97423052 57.48096017 -187.82402536 50.5996793 -179 44 C-178.05125 43.27941406 -177.1025 42.55882812 -176.125 41.81640625 C-126.10169185 4.51705003 -61.45214623 -10.97658355 0 0 Z M-71 15 C-72.216875 15.20625 -73.43375 15.4125 -74.6875 15.625 C-97.64029214 19.90433413 -119.41376887 26.94633471 -140 38 C-140.9914502 38.52182861 -140.9914502 38.52182861 -142.00292969 39.05419922 C-157.4541782 47.21296626 -170.88358431 57.52100421 -184 69 C-185.37865234 70.19302734 -185.37865234 70.19302734 -186.78515625 71.41015625 C-191.97005206 75.9694236 -196.57556508 80.7107064 -201 86 C-202.24910156 87.41732422 -202.24910156 87.41732422 -203.5234375 88.86328125 C-214.06526695 100.88512585 -222.42313568 114.05782792 -229.98583984 128.11816406 C-230.91036412 129.83367516 -231.85454679 131.53855496 -232.80078125 133.2421875 C-244.66922355 155.56031577 -250.81368186 180.09286528 -254 205 C-254.1340625 206.0209375 -254.268125 207.041875 -254.40625 208.09375 C-256.25567808 225.56057075 -255.48104043 243.63980567 -253 261 C-252.89236328 261.76602539 -252.78472656 262.53205078 -252.67382812 263.32128906 C-248.16173185 293.49115313 -235.85428385 325.2648279 -218 350 C-217.3198584 350.95543701 -217.3198584 350.95543701 -216.62597656 351.93017578 C-210.43194173 360.58403273 -203.93407898 368.77506316 -196.52197266 376.42675781 C-195.45278298 377.53196446 -194.3905453 378.64391845 -193.33349609 379.76074219 C-164.37877137 410.31468707 -126.11494297 431.29432025 -85 440 C-83.73542969 440.33 -82.47085938 440.66 -81.16796875 441 C-30.36509779 453.81126557 27.6281769 440.61488232 72.109375 414.65625 C75.50812793 412.58137853 78.77209906 410.32995588 82 408 C82.63695801 407.54657227 83.27391602 407.09314453 83.93017578 406.62597656 C92.58403273 400.43194173 100.77506316 393.93407898 108.42675781 386.52197266 C109.53196446 385.45278298 110.64391845 384.3905453 111.76074219 383.33349609 C126.24260903 369.60962281 138.06316549 354.29171786 148 337 C148.44585449 336.22736816 148.89170898 335.45473633 149.35107422 334.65869141 C163.71867512 309.40852545 172.28594843 281.74051118 176 253 C176.13277344 252.00484375 176.26554687 251.0096875 176.40234375 249.984375 C178.08771985 234.19263184 177.69934253 217.78237841 175.31201172 202.08935547 C174.98310778 199.88688296 174.6955332 197.6811646 174.41015625 195.47265625 C168.79621982 154.07095302 149.24782268 114.83933331 121.05078125 84.23828125 C119.12555454 82.13703381 117.27921697 79.98680694 115.4375 77.8125 C111.93161147 73.80348851 108.06693751 70.42550777 104 67 C102.63101563 65.78183594 102.63101563 65.78183594 101.234375 64.5390625 C55.66949981 24.30023777 -10.95722411 4.82325832 -71 15 Z " fill="#FAFBFD" transform="translate(295,27)"/>
<path d="M0 0 C13.426875 -0.1546875 13.426875 -0.1546875 27.125 -0.3125 C31.31920654 -0.38078003 31.31920654 -0.38078003 35.59814453 -0.45043945 C54.14977186 -0.62673159 68.5861495 1.19092324 82.6875 14.25 C91.31994168 23.38200428 96.11358738 34.91773111 96.5 47.4375 C96.06609496 61.14050098 91.00149961 72.77359005 81.6875 82.8125 C70.60161368 93.11005663 57.38958976 96.65470699 42.578125 96.390625 C41.48935059 96.38659668 40.40057617 96.38256836 39.27880859 96.37841797 C35.26903064 96.35772306 31.25949572 96.30188057 27.25 96.25 C18.2575 96.1675 9.265 96.085 0 96 C0 64.32 0 32.64 0 0 Z " fill="#0052A4" transform="translate(232,168)"/>
</svg>
