<?xml version="1.0" encoding="utf-8"?>
<!-- Generator: Adobe Illustrator 27.5.0, SVG Export Plug-In . SVG Version: 6.00 Build 0)  -->
<svg version="1.1" xmlns="http://www.w3.org/2000/svg" xmlns:xlink="http://www.w3.org/1999/xlink" x="0px" y="0px"
	 viewBox="0 0 2200 2200" style="enable-background:new 0 0 2200 2200;" xml:space="preserve">
<g id="Background">
	<rect style="fill:#FFFFFF;" width="2200" height="2200"/>
</g>
<g id="Objects">
	<g>
		<path style="fill:#0079C1;" d="M1678.365,209.935h-1385c-79.95,0-145,65.05-145,145v1385c0,79.95,65.05,145,145,145h801.57
			c-0.07-1.16-0.1-2.32-0.1-3.49v-6.51h-801.47c-74.44,0-135-60.56-135-135v-1385c0-74.44,60.56-135,135-135h1385
			c74.44,0,135,60.56,135,135v1013.3c3.37,0.03,6.71,0.27,10,0.71V354.935C1823.365,274.985,1758.315,209.935,1678.365,209.935z"/>
		<path style="fill:#0079C1;" d="M1172.445,818.955v1.58c0,64.18-18.93,113.74-56.8,148.72c-37.87,34.98-91,52.46-159.36,52.46
			h-160.95v-403.93h160.95c68.36,0,121.49,17.23,159.36,51.67C1153.515,703.915,1172.445,753.745,1172.445,818.955z"/>
		<path style="fill:#0079C1;" d="M1678.365,264.935h-1385c-49.63,0-90,40.37-90,90v1385c0,49.63,40.37,90,90,90h801.47v-139.78
			c0-22.71,9.7-44.43,26.61-59.6l44.91-40.26c-15.71-1.59-28.47-4.52-38.11-8.74c-5.58-2.43-10.33-6.45-13.71-11.6
			c-3.37-5.17-5.14-11.12-5.14-17.26c0-6.78,2.23-13.48,6.27-18.86c6.72-8.97,26.59-29.88,65.42-29.88h22.63
			c10.59,0,20.18,4.35,27.08,11.35l52-103.26c13.6-27.03,40.86-43.82,71.13-43.82h414.44V354.935
			C1768.365,305.305,1727.995,264.935,1678.365,264.935z M1414.655,819.745c0,77.85-16.71,145.96-50.1,204.34
			c-33.41,58.38-80.08,103.74-140.04,136.09c-59.96,32.35-129.91,48.52-209.85,48.52h-219.33v457.74h-238.26v-1238h457.59
			c79.94,0,149.89,16.17,209.85,48.52c59.96,32.35,106.63,77.71,140.04,136.09c33.39,58.38,50.1,126.76,50.1,205.12V819.745z"/>
		<polygon style="fill:#FFFFFF;" points="1583.235,1404.173 1325.195,1404.173 1243.676,1570.757 1132.029,1670.825 
			1132.029,1908.355 2036.721,1908.355 2036.721,1665.568 1917.099,1559.065 1837.352,1404.173 		"/>
		<path d="M2031.675,1645.445l-67.14-60.18l2.58-7.85c1.11-3.39,4.25-5.68,7.8-5.74c31.22-0.5,47.37-4.97,55.28-8.44
			c2.09-0.91,3.81-2.41,5.01-4.24c1.2-1.84,1.87-4.02,1.87-6.3c0-2.47-0.78-4.88-2.26-6.85c-5.18-6.91-19.82-21.89-49.43-21.89
			h-22.63c-9.95,0-18.02,8.07-18.02,18.01v25.54l-9.41-8.44l-69.52-138.03c-10.14-20.12-30.74-32.81-53.28-32.81h-458.6
			c-22.53,0-43.14,12.69-53.27,32.82l-69.51,138.02l-9.41,8.45v-25.55c0-9.94-8.07-18.01-18.02-18.01h-22.63
			c-29.61,0-44.25,14.98-49.43,21.89c-1.48,1.97-2.26,4.38-2.26,6.85c0,2.28,0.67,4.46,1.87,6.3c1.2,1.83,2.92,3.33,5.01,4.24
			c7.91,3.47,24.06,7.94,55.28,8.44c3.55,0.06,6.69,2.35,7.8,5.74l2.58,7.85l-67.14,60.18c-12.7,11.39-19.96,27.65-19.96,44.71
			v191.29c0,8.94,2.74,17.25,7.44,24.12v52.11c0,17.89,14.5,32.39,32.38,32.39h90.03c17.88,0,32.39-14.5,32.39-32.39v-33.38h612.32
			v33.38c0,17.89,14.51,32.39,32.39,32.39h90.03c17.88,0,32.38-14.5,32.38-32.39v-52.1c4.7-6.87,7.44-15.18,7.44-24.13v-191.29
			C2051.635,1673.095,2044.385,1656.835,2031.675,1645.445z M1327.595,1434.615c5.04-10.01,15.13-16.22,26.33-16.22h179.82
			c2.57,0,4.87,1.61,5.75,4.03l3.81,10.47c1.5,4.12,5.41,6.86,9.79,6.86h60.28c4.38,0,8.29-2.74,9.79-6.86l3.81-10.47
			c0.88-2.42,3.18-4.03,5.75-4.03h179.8c11.2,0,21.29,6.21,26.33,16.22l62.69,124.45h-636.62L1327.595,1434.615z M1780.415,1723.915
			l14.69,19.43h-423.73l14.68-19.43H1780.415z M1390.625,1717.875l6.27-8.31c5.27-6.96,13.62-11.12,22.36-11.12h327.96
			c8.74,0,17.09,4.16,22.36,11.12l6.27,8.31H1390.625z M1799.665,1749.375l11.79,15.6c0.92,1.22,1.66,2.5,2.24,3.84h-460.92
			c0.58-1.34,1.32-2.62,2.24-3.84l11.79-15.6H1799.665z M1292.045,1886.325h-106.9c-11.39,0-20.91-8.66-21.98-20l-1.5-15.86
			c-1.25-13.29,9.48-24.64,22.82-24.14l85.36,3.26c9.31,0.36,17.39,6.52,20.21,15.4l9.74,30.76
			C1301.455,1880.985,1297.545,1886.325,1292.045,1886.325z M1298.725,1730.715h-128.41c-11.18,0-20.24-9.06-20.24-20.24v-19.41
			c0-11.18,9.06-20.24,20.24-20.24h176.69c6.7,0,11.67,6.19,10.26,12.74c-2.48,11.42-8.21,21.63-16.19,29.61
			C1330.245,1724.015,1315.265,1730.715,1298.725,1730.715z M1793.685,1876.865c0,5.23-4.24,9.46-9.46,9.46h-401.98
			c-5.22,0-9.46-4.23-9.46-9.46v-19.58c0-5.22,4.24-9.45,9.46-9.45h401.98c5.22,0,9.46,4.23,9.46,9.45V1876.865z M1813.235,1784.135
			c-3.16,6.35-9.28,10.14-16.37,10.14h-427.26c-7.09,0-13.21-3.79-16.37-10.14c-1.49-2.99-2.12-6.17-1.92-9.29h463.84
			C1815.355,1777.965,1814.725,1781.145,1813.235,1784.135z M1809.205,1683.565c-1.41-6.55,3.56-12.74,10.26-12.74h176.69
			c11.18,0,20.24,9.06,20.24,20.24v19.41c0,11.18-9.06,20.24-20.24,20.24h-128.41c-16.54,0-31.52-6.7-42.35-17.54
			C1817.415,1705.195,1811.685,1694.985,1809.205,1683.565z M1874.425,1886.325c-5.49,0-9.41-5.34-7.75-10.58l9.74-30.76
			c2.82-8.88,10.9-15.04,20.21-15.4l85.36-3.26c13.34-0.5,24.07,10.85,22.82,24.14l-1.5,15.86c-1.07,11.34-10.59,20-21.98,20
			H1874.425z"/>
	</g>
</g>
</svg>
